<svg width="77" height="42" viewBox="0 0 77 42" fill="none" xmlns="http://www.w3.org/2000/svg">
<path d="M7.189 26.9331L1.57605 20.8225L7.189 14.7118H13.1338L7.49315 20.8225L13.1338 26.9331H7.189ZM41.6383 11.0897V24.3064C41.6383 26.3525 41.0577 27.9285 39.8964 29.0345C38.7535 30.1405 37.2051 30.6936 35.2512 30.6936C33.2051 30.6936 31.5645 30.1129 30.3295 28.9516C29.0944 27.7903 28.4769 26.1405 28.4769 24.0022H33.1774C33.1774 24.8133 33.3433 25.4308 33.6751 25.8548C34.0069 26.2603 34.4862 26.4631 35.1129 26.4631C35.6843 26.4631 36.1267 26.2788 36.4401 25.9101C36.7535 25.5414 36.9102 25.0069 36.9102 24.3064V11.0897H41.6383ZM57.2087 20.546C58.3331 20.7856 59.2364 21.3478 59.9184 22.2326C60.6004 23.099 60.9415 24.0944 60.9415 25.2188C60.9415 26.841 60.37 28.1313 59.2272 29.0898C58.1027 30.0299 56.5267 30.5 54.499 30.5H45.4575V11.0897H54.1949C56.1672 11.0897 57.7064 11.5413 58.8124 12.4445C59.9368 13.3478 60.4991 14.5736 60.4991 16.122C60.4991 17.2649 60.1949 18.2142 59.5866 18.9699C58.9967 19.7257 58.2041 20.2511 57.2087 20.546ZM50.1856 18.9423H53.2824C54.0566 18.9423 54.6465 18.7764 55.052 18.4446C55.476 18.0944 55.688 17.5874 55.688 16.9238C55.688 16.2602 55.476 15.7533 55.052 15.4031C54.6465 15.0529 54.0566 14.8778 53.2824 14.8778H50.1856V18.9423ZM53.6695 26.6843C54.4621 26.6843 55.0704 26.5092 55.4944 26.1589C55.9368 25.7903 56.158 25.2649 56.158 24.5829C56.158 23.9009 55.9276 23.3663 55.4668 22.9792C55.0244 22.5921 54.4068 22.3985 53.6142 22.3985H50.1856V26.6843H53.6695ZM63.7114 14.7118H69.6562L75.2691 20.8225L69.6562 26.9331H63.7114L69.352 20.8225L63.7114 14.7118Z" fill="black"/>
<path d="M27.4781 4.2325L20.0679 35.6706H15.5056L22.9158 4.2325H27.4781Z" fill="#2114BA"/>
</svg>
