<svg width="18" height="19" viewBox="0 0 18 19" fill="none" xmlns="http://www.w3.org/2000/svg">
<path fill-rule="evenodd" clip-rule="evenodd" d="M6.56368 13.7363C6.39495 13.5675 6.30017 13.3386 6.30017 13.1C6.30017 12.8614 6.39495 12.6325 6.56368 12.4637L9.52738 9.5L6.56368 6.5363C6.39974 6.36656 6.30902 6.13922 6.31107 5.90324C6.31312 5.66726 6.40777 5.44153 6.57464 5.27466C6.74151 5.1078 6.96724 5.01314 7.20322 5.01109C7.43919 5.00904 7.66654 5.09976 7.83628 5.2637L11.4363 8.8637C11.605 9.03247 11.6998 9.26135 11.6998 9.5C11.6998 9.73865 11.605 9.96752 11.4363 10.1363L7.83628 13.7363C7.6675 13.905 7.43863 13.9998 7.19998 13.9998C6.96133 13.9998 6.73245 13.905 6.56368 13.7363Z" fill="#F8F8F8"/>
</svg>
