<svg width="44" height="44" viewBox="0 0 44 44" fill="none" xmlns="http://www.w3.org/2000/svg">
<path fill-rule="evenodd" clip-rule="evenodd" d="M6.6001 11C6.6001 10.4165 6.83188 9.85693 7.24446 9.44435C7.65704 9.03177 8.21662 8.79999 8.8001 8.79999H35.2001C35.7836 8.79999 36.3432 9.03177 36.7557 9.44435C37.1683 9.85693 37.4001 10.4165 37.4001 11C37.4001 11.5835 37.1683 12.143 36.7557 12.5556C36.3432 12.9682 35.7836 13.2 35.2001 13.2H8.8001C8.21662 13.2 7.65704 12.9682 7.24446 12.5556C6.83188 12.143 6.6001 11.5835 6.6001 11ZM6.6001 22C6.6001 21.4165 6.83188 20.8569 7.24446 20.4444C7.65704 20.0318 8.21662 19.8 8.8001 19.8H22.0001C22.5836 19.8 23.1432 20.0318 23.5557 20.4444C23.9683 20.8569 24.2001 21.4165 24.2001 22C24.2001 22.5835 23.9683 23.143 23.5557 23.5556C23.1432 23.9682 22.5836 24.2 22.0001 24.2H8.8001C8.21662 24.2 7.65704 23.9682 7.24446 23.5556C6.83188 23.143 6.6001 22.5835 6.6001 22ZM6.6001 33C6.6001 32.4165 6.83188 31.8569 7.24446 31.4444C7.65704 31.0318 8.21662 30.8 8.8001 30.8H35.2001C35.7836 30.8 36.3432 31.0318 36.7557 31.4444C37.1683 31.8569 37.4001 32.4165 37.4001 33C37.4001 33.5835 37.1683 34.143 36.7557 34.5556C36.3432 34.9682 35.7836 35.2 35.2001 35.2H8.8001C8.21662 35.2 7.65704 34.9682 7.24446 34.5556C6.83188 34.143 6.6001 33.5835 6.6001 33Z" fill="black"/>
</svg>
