<svg width="68" height="36" viewBox="0 0 68 36" fill="none" xmlns="http://www.w3.org/2000/svg">
<rect width="68" height="36" rx="18" fill="black"/>
<circle cx="21" cy="18" r="13" fill="white"/>
<path d="M53 11C53 10.7348 52.8946 10.4804 52.7071 10.2929C52.5196 10.1054 52.2652 10 52 10C51.7348 10 51.4804 10.1054 51.2929 10.2929C51.1054 10.4804 51 10.7348 51 11V12C51 12.2652 51.1054 12.5196 51.2929 12.7071C51.4804 12.8946 51.7348 13 52 13C52.2652 13 52.5196 12.8946 52.7071 12.7071C52.8946 12.5196 53 12.2652 53 12V11ZM57.657 13.757C57.8392 13.5684 57.94 13.3158 57.9377 13.0536C57.9354 12.7914 57.8302 12.5406 57.6448 12.3552C57.4594 12.1698 57.2086 12.0646 56.9464 12.0623C56.6842 12.06 56.4316 12.1608 56.243 12.343L55.536 13.05C55.3538 13.2386 55.253 13.4912 55.2553 13.7534C55.2576 14.0156 55.3628 14.2664 55.5482 14.4518C55.7336 14.6372 55.9844 14.7424 56.2466 14.7447C56.5088 14.747 56.7614 14.6462 56.95 14.464L57.657 13.757ZM60 18C60 18.2652 59.8946 18.5196 59.7071 18.7071C59.5196 18.8946 59.2652 19 59 19H58C57.7348 19 57.4804 18.8946 57.2929 18.7071C57.1054 18.5196 57 18.2652 57 18C57 17.7348 57.1054 17.4804 57.2929 17.2929C57.4804 17.1054 57.7348 17 58 17H59C59.2652 17 59.5196 17.1054 59.7071 17.2929C59.8946 17.4804 60 17.7348 60 18ZM47.05 14.464C47.1422 14.5595 47.2526 14.6357 47.3746 14.6881C47.4966 14.7405 47.6278 14.7681 47.7606 14.7693C47.8934 14.7704 48.0251 14.7451 48.148 14.6948C48.2709 14.6445 48.3825 14.5703 48.4764 14.4764C48.5703 14.3825 48.6445 14.2709 48.6948 14.148C48.7451 14.0251 48.7704 13.8934 48.7693 13.7606C48.7681 13.6278 48.7405 13.4966 48.6881 13.3746C48.6357 13.2526 48.5595 13.1422 48.464 13.05L47.757 12.343C47.5684 12.1608 47.3158 12.06 47.0536 12.0623C46.7914 12.0646 46.5406 12.1698 46.3552 12.3552C46.1698 12.5406 46.0646 12.7914 46.0623 13.0536C46.06 13.3158 46.1608 13.5684 46.343 13.757L47.05 14.464ZM47 18C47 18.2652 46.8946 18.5196 46.7071 18.7071C46.5196 18.8946 46.2652 19 46 19H45C44.7348 19 44.4804 18.8946 44.2929 18.7071C44.1054 18.5196 44 18.2652 44 18C44 17.7348 44.1054 17.4804 44.2929 17.2929C44.4804 17.1054 44.7348 17 45 17H46C46.2652 17 46.5196 17.1054 46.7071 17.2929C46.8946 17.4804 47 17.7348 47 18ZM50 24V23H54V24C54 24.5304 53.7893 25.0391 53.4142 25.4142C53.0391 25.7893 52.5304 26 52 26C51.4696 26 50.9609 25.7893 50.5858 25.4142C50.2107 25.0391 50 24.5304 50 24ZM54 22C54.015 21.66 54.208 21.354 54.477 21.141C55.1297 20.6263 55.6058 19.921 55.8391 19.1232C56.0725 18.3253 56.0515 17.4747 55.7791 16.6893C55.5067 15.904 54.9964 15.223 54.3191 14.7411C53.6418 14.2592 52.8312 14.0002 52 14.0002C51.1688 14.0002 50.3582 14.2592 49.6809 14.7411C49.0036 15.223 48.4933 15.904 48.2209 16.6893C47.9485 17.4747 47.9275 18.3253 48.1609 19.1232C48.3942 19.921 48.8703 20.6263 49.523 21.141C49.793 21.354 49.985 21.66 49.999 22H54.001H54Z" fill="white"/>
</svg>
