<svg width="68" height="36" viewBox="0 0 68 36" fill="none" xmlns="http://www.w3.org/2000/svg">
<rect width="68" height="36" rx="18" fill="#1B203A"/>
<path d="M16.4551 22.375H20.544H16.4551ZM18.5 10.125V11V10.125ZM24.0685 12.4315L23.4499 13.0501L24.0685 12.4315ZM26.375 18H25.5H26.375ZM11.5 18H10.625H11.5ZM13.5501 13.0501L12.9315 12.4315L13.5501 13.0501ZM15.406 21.094C14.7943 20.4821 14.3777 19.7025 14.209 18.8539C14.0403 18.0053 14.127 17.1257 14.4581 16.3263C14.7893 15.5269 15.3501 14.8437 16.0695 14.3631C16.7889 13.8824 17.6348 13.6258 18.5 13.6258C19.3652 13.6258 20.2111 13.8824 20.9305 14.3631C21.6499 14.8437 22.2107 15.5269 22.5419 16.3263C22.873 17.1257 22.9597 18.0053 22.791 18.8539C22.6223 19.7025 22.2057 20.4821 21.594 21.094L21.1145 21.5726C20.8404 21.8468 20.6229 22.1723 20.4746 22.5305C20.3263 22.8887 20.2499 23.2727 20.25 23.6604V24.125C20.25 24.5891 20.0656 25.0342 19.7374 25.3624C19.4092 25.6906 18.9641 25.875 18.5 25.875C18.0359 25.875 17.5908 25.6906 17.2626 25.3624C16.9344 25.0342 16.75 24.5891 16.75 24.125V23.6604C16.75 22.8772 16.4385 22.1256 15.8855 21.5726L15.406 21.094Z" stroke="white" stroke-width="2" stroke-linecap="round" stroke-linejoin="round"/>
<circle cx="50" cy="18" r="13" fill="white"/>
</svg>
